grf
version=1
nRows=36
nColumns=19
inDegrees=yes
endheader
time	ground_force_1_vx	ground_force_1_vy	ground_force_1_vz	ground_force_1_px	ground_force_1_py	ground_force_1_pz	ground_moment_1_mx	ground_moment_1_my	ground_moment_1_mz	ground_force_2_vx	ground_force_2_vy	ground_force_2_vz	ground_force_2_px	ground_force_2_py	ground_force_2_pz	ground_moment_2_mx	ground_moment_2_my	ground_moment_2_mz
5.190000	0.687359	1573.760742	-614.129395	0.180133	0.000000	-0.803492	0.000000	-3.367138	-0.000000	-31.788208	1575.774292	596.662109	0.208668	0.000000	-1.603101	0.000000	-9.980832	-0.000000
5.191000	0.562441	1569.602661	-612.921875	0.180053	0.000000	-0.803390	0.000000	-3.135487	-0.000000	-31.668251	1585.339844	596.460083	0.208404	0.000000	-1.600635	0.000000	-10.058356	-0.000000
5.192000	0.522575	1574.071289	-616.071411	0.180401	0.000000	-0.804185	0.000000	-2.995726	0.000000	-30.136112	1585.669922	598.268555	0.208303	0.000000	-1.601970	0.000000	-9.564859	-0.000000
5.193000	1.208639	1576.816895	-613.002258	0.179687	0.000000	-0.803743	0.000000	-2.962637	-0.000000	-31.910240	1583.595337	598.552246	0.208683	0.000000	-1.602451	0.000000	-10.113005	-0.000000
5.194000	1.209398	1572.656860	-610.501465	0.179561	0.000000	-0.803726	0.000000	-3.105158	0.000000	-32.554207	1589.339355	598.350952	0.209475	0.000000	-1.602680	0.000000	-9.693600	-0.000000
5.195000	1.810408	1577.450928	-611.312256	0.179956	0.000000	-0.802279	0.000000	-2.955642	0.000000	-32.231464	1577.374390	597.305359	0.208623	0.000000	-1.601702	-0.000000	-10.057375	-0.000000
5.196000	2.296007	1577.927124	-610.909180	0.180209	0.000000	-0.803741	0.000000	-3.198499	0.000000	-32.393803	1578.971313	598.391846	0.208754	0.000000	-1.601910	0.000000	-10.213149	0.000000
5.197000	2.980167	1572.648315	-609.539124	0.179982	0.000000	-0.804225	0.000000	-3.048184	0.000000	-33.277279	1578.177368	598.149048	0.208792	0.000000	-1.601655	-0.000000	-9.912211	-0.000000
5.198000	3.021173	1576.505981	-609.457886	0.179617	0.000000	-0.804220	0.000000	-2.885395	-0.000000	-32.754925	1575.312012	598.350586	0.209261	0.000000	-1.602079	0.000000	-9.733071	-0.000000
5.199000	3.301365	1576.986450	-610.143250	0.179888	0.000000	-0.806608	0.000000	-2.916374	-0.000000	-33.036255	1577.378662	599.275452	0.208841	0.000000	-1.601763	0.000000	-9.944357	-0.000000
5.200000	3.909218	1570.747681	-609.176697	0.179423	0.000000	-0.803298	0.000000	-2.781961	-0.000000	-32.995808	1578.492920	598.753479	0.208678	0.000000	-1.601742	-0.000000	-10.090400	-0.000000
5.201000	3.662426	1591.119263	-607.480164	0.179034	0.000000	-0.803709	0.000000	-2.566162	-0.000000	-33.760983	1575.307983	599.035034	0.208842	0.000000	-1.601574	-0.000000	-10.124059	-0.000000
5.202000	3.945661	1575.557617	-609.859985	0.179218	0.000000	-0.804487	0.000000	-2.535480	-0.000000	-33.197906	1591.569824	599.759033	0.209082	0.000000	-1.601761	0.000000	-9.985561	-0.000000
5.203000	4.754357	1570.931030	-609.216431	0.178828	0.000000	-0.803697	0.000000	-2.370249	-0.000000	-33.721222	1583.437500	599.558228	0.209004	0.000000	-1.601804	-0.000000	-10.126984	-0.000000
5.204000	4.632864	1580.353271	-608.373657	0.179593	0.000000	-0.804792	0.000000	-2.696255	-0.000000	-33.880249	1579.613281	598.794250	0.209190	0.000000	-1.601702	0.000000	-9.811187	-0.000000
5.205000	5.321209	1569.647217	-609.138184	0.179048	0.000000	-0.803477	0.000000	-2.509472	-0.000000	-34.364506	1585.033447	598.714355	0.209048	0.000000	-1.601989	-0.000000	-10.156108	0.000000
5.206000	4.752457	1577.489136	-609.619690	0.178951	0.000000	-0.804052	0.000000	-2.334672	-0.000000	-33.801430	1583.918945	599.519470	0.209348	0.000000	-1.603169	0.000000	-10.071793	0.000000
5.207000	4.591857	1569.964600	-608.815674	0.178638	0.000000	-0.803045	0.000000	-2.128273	-0.000000	-34.523949	1583.600830	599.519470	0.209498	0.000000	-1.601856	0.000000	-9.787641	0.000000
5.208000	4.834847	1577.659790	-608.210388	0.178846	0.000000	-0.804283	0.000000	-2.350071	-0.000000	-36.456825	1580.417480	598.072998	0.209603	0.000000	-1.602024	0.000000	-10.170254	0.000000
5.209000	5.402078	1580.060303	-609.501099	0.178761	0.000000	-0.804519	0.000000	-2.316477	-0.000000	-35.168884	1583.764771	600.646729	0.209851	0.000000	-1.602639	0.000000	-9.889975	-0.000000
5.210000	5.362593	1581.968994	-609.621094	0.179174	0.000000	-0.804704	0.000000	-2.634210	-0.000000	-35.128574	1583.923828	600.605835	0.209960	0.000000	-1.602652	0.000000	-9.751252	-0.000000
5.211000	6.696755	1576.847168	-609.056885	0.178929	0.000000	-0.804394	0.000000	-2.655532	-0.000000	-36.697845	1577.083130	599.842651	0.210550	0.000000	-1.602687	-0.000000	-9.610800	-0.000000
5.212000	6.043330	1581.655151	-609.220337	0.179239	0.000000	-0.803979	0.000000	-2.395435	-0.000000	-36.296001	1586.795654	601.009033	0.209883	0.000000	-1.602289	0.000000	-10.030255	-0.000000
5.213000	6.489827	1583.095947	-610.105225	0.178895	0.000000	-0.804619	0.000000	-2.346131	-0.000000	-36.819599	1581.697510	601.050232	0.210334	0.000000	-1.602955	0.000000	-9.974737	-0.000000
5.214000	6.768877	1572.062012	-608.817810	0.178402	0.000000	-0.802609	0.000000	-1.882220	-0.000000	-37.181412	1577.100586	601.896118	0.210776	0.000000	-1.604118	0.000000	-9.863514	-0.000000
5.215000	7.091977	1573.480957	-610.185791	0.179177	0.000000	-0.804161	0.000000	-2.403712	-0.000000	-37.705009	1590.942871	601.292114	0.210104	0.000000	-1.602346	0.000000	-10.235542	-0.000000
5.216000	8.945135	1581.820679	-609.583008	0.178977	0.000000	-0.804104	0.000000	-2.157291	-0.000000	-37.704315	1583.133301	601.653870	0.210141	0.000000	-1.602640	0.000000	-10.125642	-0.000000
5.217000	8.062033	1578.616699	-610.348267	0.179102	0.000000	-0.803770	0.000000	-2.396885	-0.000000	-38.469353	1593.172363	601.332397	0.210235	0.000000	-1.602550	0.000000	-10.208095	-0.000000
5.218000	8.383231	1576.043213	-609.260071	0.179274	0.000000	-0.804036	0.000000	-2.487120	-0.000000	-39.474030	1588.405518	601.654297	0.210330	0.000000	-1.603027	0.000000	-10.115752	-0.000000
5.219000	8.139480	1582.769897	-610.911987	0.179256	0.000000	-0.803932	0.000000	-2.350629	-0.000000	-38.790718	1583.769531	602.941895	0.210249	0.000000	-1.602044	0.000000	-10.212562	-0.000000
5.220000	8.300078	1575.735229	-611.879028	0.179048	0.000000	-0.804010	0.000000	-2.162794	-0.000000	-40.077278	1581.720459	602.498901	0.211032	0.000000	-1.603996	0.000000	-9.747787	-0.000000
5.221000	8.666845	1578.290649	-611.757324	0.179117	0.000000	-0.803750	0.000000	-2.407780	-0.000000	-41.645584	1591.751343	603.264526	0.210929	0.000000	-1.602704	0.000000	-9.899392	-0.000000
5.222000	8.466763	1583.426758	-612.120239	0.178692	0.000000	-0.804379	0.000000	-2.185988	-0.000000	-39.838600	1580.423706	603.626831	0.210516	0.000000	-1.603629	0.000000	-10.507691	-0.000000
5.223000	8.260595	1578.949219	-610.626404	0.178723	0.000000	-0.803235	0.000000	-2.192859	-0.000000	-41.404427	1596.694824	603.989197	0.211561	0.000000	-1.603564	0.000000	-9.634753	-0.000000
5.224000	8.746193	1578.129028	-612.522583	0.179568	0.000000	-0.805320	0.000000	-2.603741	0.000000	-42.731709	1587.127686	604.914063	0.211374	0.000000	-1.602754	0.000000	-9.736994	-0.000000
5.225000	7.980021	1574.125244	-612.969543	0.179164	0.000000	-0.803845	0.000000	-2.199058	-0.000000	-43.415848	1591.592773	605.156067	0.211465	0.000000	-1.602955	0.000000	-9.819953	-0.000000
